<svg height="512" viewBox="0 0 64 64" width="512" xmlns="http://www.w3.org/2000/svg"><g id="Blue"><path d="m42 61h-20l-4-40h28z" fill="#cdeef6"/><path d="m24 46h2v2h-2z" fill="#4f83d1"/><path d="m28 44h2v2h-2z" fill="#4f83d1"/><path d="m40 29h2v2h-2z" fill="#4f83d1"/><path d="m37 33h2v2h-2z" fill="#4f83d1"/><path d="m40 36h2v2h-2z" fill="#4f83d1"/><path d="m15 15h34v6h-34z" fill="#cdeef6"/><path d="m35 3h4v12h-4z" fill="#7cb8eb"/><rect fill="#fff" height="6" rx="2" width="6" x="24" y="34"/><rect fill="#fff" height="6" rx="2" width="6" x="33" y="42"/><rect fill="#fff" height="6" rx="2" width="6" x="26" y="51"/><path d="m25 29c7.252 0 6.748-3.2 14-3.2a14.38 14.38 0 0 1 6.392 1.277l.608-6.077h-28l.675 6.749a15.891 15.891 0 0 0 6.325 1.251z" fill="#7cb8eb"/><g fill="#4f83d1"><path d="m24 46h2v2h-2z"/><path d="m28 44h2v2h-2z"/><path d="m40 29h2v2h-2z"/><path d="m37 33h2v2h-2z"/><path d="m40 36h2v2h-2z"/><path d="m39 2h-4a1 1 0 0 0 -1 1v11h-19a1 1 0 0 0 -1 1v6a1 1 0 0 0 1 1h2.1l3.91 39.1a1 1 0 0 0 1 .9h19.99a1 1 0 0 0 1-.9l3.905-39.1h2.095a1 1 0 0 0 1-1v-6a1 1 0 0 0 -1-1h-9v-11a1 1 0 0 0 -1-1zm-3 2h2v10h-2zm5.1 56h-18.195l-3.076-30.761a17.458 17.458 0 0 0 5.171.761 14.892 14.892 0 0 0 7.429-1.7 13.01 13.01 0 0 1 6.571-1.5 13.068 13.068 0 0 1 5.322.926zm3.433-34.334a15.33 15.33 0 0 0 -5.533-.866 14.892 14.892 0 0 0 -7.429 1.7 13.01 13.01 0 0 1 -6.571 1.5 15.36 15.36 0 0 1 -5.39-.947l-.505-5.053h25.795zm3.467-9.666v4h-32v-4z"/><path d="m28 41a2.9 2.9 0 0 0 3-3v-2a2.9 2.9 0 0 0 -3-3h-2a2.9 2.9 0 0 0 -3 3v2a2.9 2.9 0 0 0 3 3zm-3-3v-2a.91.91 0 0 1 1-1h2a.91.91 0 0 1 1 1v2a.91.91 0 0 1 -1 1h-2a.91.91 0 0 1 -1-1z"/><path d="m35 41a2.9 2.9 0 0 0 -3 3v2a2.9 2.9 0 0 0 3 3h2a2.9 2.9 0 0 0 3-3v-2a2.9 2.9 0 0 0 -3-3zm3 3v2a.91.91 0 0 1 -1 1h-2a.91.91 0 0 1 -1-1v-2a.91.91 0 0 1 1-1h2a.91.91 0 0 1 1 1z"/><path d="m30 50h-2a2.9 2.9 0 0 0 -3 3v2a2.9 2.9 0 0 0 3 3h2a2.9 2.9 0 0 0 3-3v-2a2.9 2.9 0 0 0 -3-3zm1 5a.91.91 0 0 1 -1 1h-2a.91.91 0 0 1 -1-1v-2a.91.91 0 0 1 1-1h2a.91.91 0 0 1 1 1z"/></g></g></svg>