<svg id="Capa_1" enable-background="new 0 0 512.189 512.189" height="512" viewBox="0 0 512.189 512.189" width="512" xmlns="http://www.w3.org/2000/svg"><g><g><path d="m353.425 215.311-46.75-5.638c-16.158-1.249-33.263-1.922-50.973-1.922-17.565 0-34.534.662-50.575 1.891l-46.727 5.597c-49.286 8.331-81.901 22.804-81.901 39.267 0 25.822 80.232 49.755 179.204 49.755 98.971 0 179.204-23.933 179.204-49.755-.001-16.415-32.432-30.853-81.482-39.195z" fill="#dbedff"/><g><path d="m140.919 254.294c0-17.416 18.543-32.878 47.215-42.617l-29.734 3.562c-49.286 8.331-81.901 22.804-81.901 39.267 0 20.117 48.698 39.085 117.013 46.486-31.716-10.579-52.593-28.214-52.593-46.698z" fill="#b5dcff"/></g><path d="m342.307 186.703c-3.559 4.969-9.153 8.007-15.243 8.524-7.007.596-13.748 4.17-18.161 10.505-6.988 10.03-5.432 23.962 3.593 32.207 10.601 9.686 26.995 8.301 35.858-2.714 4.488-5.579 6.148-12.515 5.17-19.079-.879-5.9 1.13-11.868 5.124-16.299l140.126-155.484c8.544-9.481 7.367-24.195-2.577-32.196-9.944-8.001-24.569-6.002-32.001 4.374z" fill="#ffe97b"/><path d="m169.508 186.703c3.559 4.969 9.153 8.007 15.243 8.524 7.007.596 13.748 4.17 18.161 10.505 6.988 10.03 5.432 23.962-3.593 32.207-10.601 9.686-26.995 8.301-35.858-2.714-4.489-5.579-6.148-12.515-5.17-19.079.879-5.9-1.13-11.868-5.124-16.299l-140.126-155.484c-8.545-9.481-7.367-24.195 2.577-32.196 9.944-8.001 24.569-6.002 32.001 4.374z" fill="#ffe97b"/><path d="m327.184 213.677c4.413-6.334 11.154-9.909 18.162-10.505 6.09-.517 11.683-3.555 15.243-8.524l121.887-170.163c4.095-5.717 10.374-8.884 16.85-9.244-.923-1.103-1.964-2.137-3.129-3.075-9.944-8.001-24.569-6.002-32.001 4.374l-121.889 170.163c-3.559 4.969-9.153 8.007-15.243 8.524-7.007.596-13.748 4.17-18.161 10.505-6.988 10.03-5.432 23.962 3.593 32.207 4.824 4.408 10.848 6.516 16.816 6.474-7.702-8.357-8.717-21.279-2.128-30.736z" fill="#f4dd45"/><path d="m178.462 228.226c-4.489-5.579-6.148-12.515-5.17-19.079.879-5.9-1.13-11.868-5.124-16.299l-140.127-155.485c-7.836-8.695-7.489-21.787.292-30.07-4.479.241-8.935 1.834-12.714 4.875-9.944 8.001-11.122 22.715-2.578 32.196l140.127 155.485c3.994 4.431 6.003 10.399 5.124 16.299-.978 6.564.682 13.501 5.17 19.079 8.862 11.015 25.257 12.4 35.858 2.714.22-.202.416-.422.628-.63-7.951.732-16.106-2.399-21.486-9.085z" fill="#f4dd45"/><path d="m255.702 333.46c92.597 0 169.661-18.324 179.204-41.832v-37.122c0 25.822-80.232 46.755-179.204 46.755-98.971 0-179.204-20.933-179.204-46.755v32.198c0 25.822 80.232 46.756 179.204 46.756z" fill="#477b9e"/><path d="m135.005 289.065c-35.947-8.551-58.506-20.868-58.506-34.559v32.198c0 13.692 22.559 26.008 58.506 34.559z" fill="#365e7d"/><path d="m255.702 474.025c-98.971 0-179.204-20.933-179.204-46.755v30.229c0 25.822 80.232 46.755 179.204 46.755s179.204-20.933 179.204-46.755v-25.305c-9.543 23.507-86.607 41.831-179.204 41.831z" fill="#477b9e"/><path d="m135.005 461.829c-35.947-8.551-58.506-20.867-58.506-34.559v30.229c0 13.692 22.559 26.008 58.506 34.559z" fill="#365e7d"/><path d="m255.702 331.46c-98.972 0-179.204-20.933-179.204-46.755v144.565c0 25.822 80.232 46.755 179.204 46.755s179.204-20.933 179.204-46.755v-144.566c0 25.822-80.232 46.756-179.204 46.756z" fill="#f87c68"/><path d="m135.005 319.264c-35.947-8.551-58.506-20.868-58.506-34.559v144.565c0 13.692 22.559 26.008 58.506 34.559z" fill="#ec625e"/></g><g><path d="m501.084 6.669c-13.296-10.697-32.83-8.069-42.799 5.851l-121.89 170.162h.001c-2.225 3.104-5.789 5.079-9.782 5.418-9.552.812-18.183 5.802-23.679 13.69-.095.137-.182.277-.274.414-9.396-.652-19.073-1.121-28.875-1.372-4.128-.126-7.583 3.164-7.689 7.305s3.164 7.583 7.305 7.689c8.1.209 16.123.56 23.953 1.048-1.048 10.224 2.896 20.214 10.268 26.948 19.335 17.665 49.958 6.037 53.529-19.173 19.935 3.86 36.543 8.78 48.399 14.362 11.297 5.319 18.041 11.24 18.041 15.84 0 15.4-64.169 39.255-171.704 39.255-107.311 0-171.703-23.804-171.703-39.255 0-4.617 6.786-10.559 18.154-15.894 11.931-5.599 28.639-10.528 48.685-14.388 3.584 25.565 34.435 36.708 53.542 19.252 7.303-6.675 11.289-16.635 10.249-26.973 7.839-.484 15.868-.83 23.967-1.032 4.141-.104 7.414-3.545 7.311-7.686-.104-4.141-3.541-7.375-7.686-7.311-9.803.246-19.49.708-28.898 1.355-.086-.128-.167-.259-.256-.386-5.496-7.889-14.127-12.879-23.682-13.691-3.99-.338-7.555-2.312-9.778-5.417l-121.89-170.161c-9.998-13.957-29.543-16.519-42.799-5.85-13.323 10.719-14.886 30.369-3.447 43.06l140.127 155.485c1.149 1.275 2.005 2.71 2.58 4.217-33.177 6.211-81.178 19.654-81.178 45.42v202.993c0 16.695 19.546 30.26 58.094 40.317 34.447 8.987 80.122 13.937 128.609 13.937 71.982 0 186.704-13.861 186.704-54.254v-68.321c0-4.143-3.357-7.5-7.5-7.5s-7.5 3.357-7.5 7.5v40.092c0 6.661-14.106 17.057-45.544 25.446l45.544-135.602v35.064c0 4.143 3.357 7.5 7.5 7.5s7.5-3.357 7.5-7.5v-99.672c0-25.692-47.779-39.131-80.796-45.346.574-1.533 1.441-2.995 2.608-4.29l140.127-155.486c11.448-12.702 9.864-32.35-3.448-43.06zm-482.285 33.017c-5.662-6.279-4.899-16.016 1.707-21.33 6.608-5.316 16.275-3.981 21.203 2.897l121.888 170.162.001.001c4.785 6.68 12.332 10.918 20.703 11.628 15.078 1.283 20.85 19.922 10.146 29.703-11.389 10.412-30.749 1.887-28.5-15.576 1.043-7.875-1.497-15.87-7.021-22zm79.994 276.157c26.683 11.645 64.998 17.727 94.165 20.539l-50.676 108.944zm-14.608 3.616 45.544 135.602c-31.438-8.389-45.544-18.785-45.544-25.446zm119.131 30.223 41.949 119.104c-34.021-.52-66.168-3.533-93.303-8.701zm11.827-11.575c13.22.79 26.866 1.197 40.745 1.197s27.525-.407 40.745-1.197l-40.745 115.686zm93.318 11.573 51.355 110.404c-27.136 5.168-59.284 8.181-93.304 8.701zm10.357-13.298c29.153-2.81 67.477-8.891 94.166-20.539l-43.489 129.484zm-62.93-27.276c45.842 0 134.474-5.92 171.704-31.325v7.269c0 3.425-3.484 6.56-6.008 8.675-7.018 5.556-20.348 11.774-40.873 17.129-38.3 9.992-85.39 13.451-124.823 13.451-39.421 0-86.513-3.456-124.822-13.451-20.515-5.352-33.843-11.566-40.863-17.121-7.097-5.965-6.018-7.282-6.018-15.952 36.926 25.19 124.657 31.325 171.703 31.325zm171.704 143.43v5.308c0 15.421-64.259 39.254-171.704 39.254-107.309 0-171.703-23.804-171.703-39.254v-5.308c37.027 25.269 126.665 31.33 171.653 31.333.017 0 .034.002.051.002s.034-.002.051-.002c45.025-.003 134.635-6.071 171.652-31.333zm65.797-412.85-140.127 155.486c-5.36 5.948-7.911 13.653-7.106 21.3.217 2.063 1.495 8.238-3.461 14.398-6.184 7.684-17.569 8.628-24.954 1.878-6.127-5.598-7.345-15.428-2.499-22.384 2.939-4.218 7.548-6.886 12.642-7.318 8.374-.711 15.921-4.949 20.706-11.629 0 0 0-.001.001-.001l121.889-170.162c4.933-6.888 14.605-8.206 21.202-2.897 6.587 5.298 7.386 15.031 1.707 21.329z"/><path d="m248.388 141.629v24.454c0 4.143 3.357 7.5 7.5 7.5s7.5-3.357 7.5-7.5v-24.454c0-4.143-3.357-7.5-7.5-7.5s-7.5 3.357-7.5 7.5z"/><path d="m199.484 149.243c-3.587 2.071-4.816 6.658-2.745 10.245l12.228 21.177c2.074 3.591 6.662 4.814 10.245 2.745 3.587-2.071 4.816-6.658 2.745-10.245l-12.228-21.177c-2.072-3.588-6.659-4.815-10.245-2.745z"/><path d="m302.047 151.988-12.227 21.177c-2.071 3.587-.842 8.174 2.745 10.245 3.592 2.072 8.177.839 10.245-2.745l12.227-21.177c2.071-3.587.842-8.174-2.745-10.245-3.59-2.07-8.175-.843-10.245 2.745z"/></g></g></svg>