<?xml version="1.0" encoding="iso-8859-1"?>
<!-- Generator: Adobe Illustrator 19.0.0, SVG Export Plug-In . SVG Version: 6.00 Build 0)  -->
<svg version="1.1" id="Capa_1" xmlns="http://www.w3.org/2000/svg" xmlns:xlink="http://www.w3.org/1999/xlink" x="0px" y="0px"
	 viewBox="0 0 444.082 444.082" style="enable-background:new 0 0 444.082 444.082;" xml:space="preserve">
<path style="fill:#4DCFE0;" d="M358.953,207.412c56.947,98.22-23.51,220.996-136.882,220.996
	c-87.771,0-155.69-73.665-155.69-152.033c0-22.988,5.747-46.498,18.808-68.963L222.071,15.673L358.953,207.412z"/>
<g>
	<path style="fill:#3A2C51;" d="M222.071,444.082c-92.996,0-171.363-76.8-171.363-167.706c0-27.167,6.792-52.767,20.898-76.8
		c0-0.522,0.522-1.045,1.045-1.045L209.533,6.792C212.145,2.612,216.847,0,222.071,0s9.927,2.612,12.539,6.792l136.882,191.739
		c0.522,0.522,0.522,1.045,1.045,1.045c28.212,48.588,27.69,107.624-1.045,157.257C340.145,410.645,283.198,444.082,222.071,444.082
		z M98.251,215.771c-10.971,18.808-16.196,39.184-16.196,60.604c0,73.665,64.261,136.359,140.016,136.359
		c50.155,0,96.653-27.167,122.253-71.576c23.51-40.751,24.033-86.204,1.567-125.388L222.071,42.841L98.251,215.771z"/>
	<path style="fill:#3A2C51;" d="M221.027,372.506c-8.882,0-15.673-6.792-15.673-15.673c0-8.882,6.792-15.673,15.673-15.673
		c37.094,0,67.396-30.302,67.396-67.396c0-8.882,6.792-15.673,15.673-15.673s15.673,6.792,15.673,15.673
		C319.769,328.098,275.361,372.506,221.027,372.506z"/>
</g>
<g>
</g>
<g>
</g>
<g>
</g>
<g>
</g>
<g>
</g>
<g>
</g>
<g>
</g>
<g>
</g>
<g>
</g>
<g>
</g>
<g>
</g>
<g>
</g>
<g>
</g>
<g>
</g>
<g>
</g>
</svg>
